<svg width="101" height="1048" viewBox="0 0 101 1048" fill="none" xmlns="http://www.w3.org/2000/svg">
<g opacity="0.4">
<path d="M49.9825 1045.15C37.2839 1045.15 24.5958 1040.32 14.9262 1030.65C-4.40264 1011.32 -4.40264 979.88 14.9262 960.551C24.294 951.184 36.7427 946.031 49.9825 946.031C63.2223 946.031 75.671 951.184 85.0387 960.551C104.368 979.88 104.368 1011.32 85.0387 1030.65C75.3795 1040.31 62.681 1045.15 49.9825 1045.15ZM17.5284 1028.05C35.4208 1045.94 64.5337 1045.94 82.4262 1028.05C100.319 1010.16 100.319 981.046 82.4262 963.153C73.7558 954.483 62.2334 949.716 49.9721 949.716C37.7107 949.716 26.1883 954.493 17.5179 963.153C-0.374513 981.046 -0.374513 1010.16 17.5179 1028.05H17.5284Z" fill="#9DADF2"/>
<path d="M49.3268 1014.16C49.5037 1014.58 49.9201 1014.83 50.3572 1014.83C50.503 1014.83 50.6487 1014.8 50.7945 1014.75C54.2918 1013.28 57.4768 1011.01 59.9957 1008.18C60.4016 1007.72 60.36 1007.02 59.902 1006.61C59.444 1006.2 58.7362 1006.25 58.3303 1006.7C56.03 1009.29 53.126 1011.37 49.9305 1012.7C49.3685 1012.94 49.0978 1013.59 49.3372 1014.16H49.3268Z" fill="#9DADF2"/>
<path d="M68.8727 978.464L50.387 971.074C50.1164 970.97 49.8249 970.97 49.5543 971.074L31.0685 978.464C30.6418 978.631 30.3711 979.037 30.3711 979.495V992.735C30.3919 1004.95 38.1152 1016 49.5855 1020.2C49.7104 1020.24 49.8353 1020.27 49.9706 1020.27C50.1059 1020.27 50.2308 1020.24 50.3557 1020.2C61.826 1015.99 69.5493 1004.95 69.5701 992.735V979.495C69.5701 979.037 69.2995 978.631 68.8727 978.464ZM67.3426 992.735C67.3218 1003.85 60.348 1013.98 49.981 1017.97C39.614 1013.98 32.6298 1003.85 32.609 992.735V980.255L49.981 973.312L67.3426 980.255V992.735Z" fill="#9DADF2"/>
<path d="M42.2583 980.203C41.9877 980.088 41.6859 980.088 41.4048 980.203L37.002 981.962C36.5752 982.128 36.3046 982.534 36.3046 982.992V987.686C36.3046 988.3 36.8042 988.8 37.4183 988.8C38.0324 988.8 38.532 988.3 38.532 987.686V983.752L42.2271 982.274C42.5081 982.159 42.7163 981.951 42.8412 981.67C42.9557 981.4 42.9557 981.098 42.8412 980.817C42.7267 980.536 42.5185 980.327 42.2479 980.203H42.2583Z" fill="#9DADF2"/>
<path d="M78.1258 967.452C70.6108 959.927 60.6081 955.794 49.9705 955.794C39.3328 955.794 29.3406 959.937 21.8151 967.452C6.29584 982.971 6.29584 1008.23 21.8151 1023.76C29.58 1031.53 39.77 1035.4 49.9705 1035.4C60.1709 1035.4 70.361 1031.52 78.1258 1023.76C93.6451 1008.24 93.6451 982.982 78.1258 967.452ZM72.6197 992.735C72.6509 1006.86 63.6266 1019.21 50.1682 1023.49C50.0433 1023.53 49.908 1023.53 49.7727 1023.49C36.3143 1019.21 27.29 1006.86 27.3213 992.735V977.111C27.3213 976.851 27.4774 976.612 27.7272 976.508L49.7311 967.712C49.8039 967.681 49.8872 967.671 49.9705 967.671C50.0537 967.671 50.137 967.681 50.2098 967.712L72.2137 976.518C72.4635 976.612 72.6197 976.851 72.6197 977.122V992.745V992.735Z" fill="#9DADF2"/>
<path d="M50.3966 922.841C23.0739 922.841 0.85144 900.608 0.85144 873.296C0.85144 845.983 23.0843 823.75 50.3966 823.75C77.7088 823.75 99.9417 845.983 99.9417 873.296C99.9417 900.608 77.7088 922.841 50.3966 922.841ZM50.3966 827.05C24.8954 827.05 4.15096 847.794 4.15096 873.296C4.15096 898.797 24.8954 919.541 50.3966 919.541C75.8977 919.541 96.6422 898.797 96.6422 873.296C96.6422 847.794 75.8977 827.05 50.3966 827.05Z" fill="#478BF9"/>
<path d="M82.7173 837.949L67.379 853.287L70.3966 856.305L85.7349 840.966L82.7173 837.949Z" fill="#478BF9"/>
<path d="M29.9241 890.741L14.5859 906.079L17.6035 909.096L32.9417 893.758L29.9241 890.741Z" fill="#478BF9"/>
<path d="M70.8615 890.756L67.8438 893.773L83.1821 909.111L86.1997 906.094L70.8615 890.756Z" fill="#478BF9"/>
<path d="M17.5997 837.487L14.5821 840.505L29.913 855.836L32.9306 852.818L17.5997 837.487Z" fill="#478BF9"/>
<path d="M62.4807 874.628C63.4799 873.629 63.4799 872.015 62.4807 871.026L60.3573 868.913C59.358 867.914 57.7448 867.914 56.7559 868.913L55.6109 870.058L54.2891 868.736C53.2899 867.737 51.6765 867.737 50.6877 868.736L49.5428 869.892L48.2208 868.559C47.2216 867.56 45.6082 867.56 44.6194 868.559L37.5936 875.585C37.5416 875.637 37.5416 875.721 37.5936 875.783C38.5304 876.72 40.0605 876.72 41.0077 875.783L45.5354 871.255C46.0246 870.766 46.8157 870.766 47.3049 871.255L47.638 871.588C47.7004 871.651 47.7004 871.745 47.638 871.807L43.8596 875.585C43.8076 875.637 43.8076 875.721 43.8596 875.783C44.7964 876.72 46.3265 876.72 47.2737 875.783L51.6141 871.443C52.1033 870.953 52.8943 870.953 53.3835 871.443L53.7166 871.776C53.7687 871.828 53.7687 871.911 53.7166 871.974L50.0736 875.617C50.0216 875.669 50.0216 875.752 50.0736 875.814C51.0104 876.751 52.5404 876.751 53.4876 875.814L57.6823 871.62C58.1715 871.13 58.9625 871.13 59.4517 871.62L60.1699 872.338C60.451 872.619 60.451 873.087 60.1699 873.368L60.0555 873.483C59.7744 873.764 59.306 873.764 59.025 873.483L58.0986 872.556C58.0466 872.504 57.9633 872.504 57.9009 872.556L56.2979 874.159C56.2459 874.211 56.2459 874.295 56.2979 874.357L57.7448 875.804C58.744 876.803 60.3573 876.803 61.3461 875.804L62.4911 874.659L62.4807 874.628Z" fill="#478BF9"/>
<path d="M50.3976 835.304C29.4138 835.304 12.4061 852.312 12.4061 873.295C12.4061 894.279 29.4138 911.287 50.3976 911.287C71.3815 911.287 88.3892 894.279 88.3892 873.295C88.3892 852.312 71.3815 835.304 50.3976 835.304ZM51.9485 847.035C58.048 847.388 63.5854 849.824 67.8737 853.634L62.3884 859.119C59.526 856.694 55.9142 855.122 51.9485 854.789V847.035ZM48.8571 847.035V854.789C44.8914 855.112 41.2797 856.694 38.4173 859.119L32.9319 853.634C37.2203 849.824 42.7577 847.388 48.8571 847.035ZM30.7461 855.819L36.2314 861.305C33.8062 864.167 32.2346 867.779 31.9015 871.745H24.147C24.5009 865.645 26.9366 860.108 30.7461 855.819ZM24.147 874.836H31.9015C32.2241 878.802 33.8062 882.413 36.2314 885.276L30.7461 890.761C26.9366 886.473 24.5009 880.935 24.147 874.836ZM48.8571 899.546C42.7577 899.192 37.2203 896.757 32.9319 892.947L38.4173 887.462C41.2797 889.887 44.8914 891.459 48.8571 891.792V899.546ZM34.4308 873.285C34.4308 864.469 41.5815 857.318 50.3976 857.318C59.2138 857.318 66.3645 864.469 66.3645 873.285C66.3645 882.101 59.2138 889.252 50.3976 889.252C41.5815 889.252 34.4308 882.101 34.4308 873.285ZM51.9485 899.546V891.792C55.9142 891.469 59.526 889.887 62.3884 887.462L67.8737 892.947C63.5854 896.757 58.048 899.192 51.9485 899.546ZM70.0595 890.761L64.5742 885.276C66.9994 882.413 68.5711 878.802 68.9042 874.836H76.6586C76.3047 880.935 73.8691 886.473 70.0595 890.761ZM68.9042 871.745C68.5815 867.779 66.9994 864.167 64.5742 861.305L70.0595 855.819C73.8691 860.108 76.3047 865.645 76.6586 871.745H68.9042Z" fill="#478BF9"/>
<path d="M15.4922 778.48C-3.99755 758.99 -3.99755 727.281 15.4922 707.792C34.9819 688.302 66.6906 688.302 86.1803 707.792C105.67 727.281 105.67 758.99 86.1803 778.48C66.6906 797.97 34.9819 797.97 15.4922 778.48ZM83.8247 710.147C65.6336 691.956 36.0388 691.956 17.8525 710.147C-0.3385 728.338 -0.3385 757.933 17.8525 776.119C36.0436 794.31 65.6384 794.31 83.8247 776.119C102.016 757.928 102.016 728.334 83.8247 710.147Z" fill="white"/>
<path d="M84.364 732.533C84.1886 732.358 84.0465 732.135 83.9659 731.888C82.2359 726.769 79.411 722.234 75.5718 718.394C71.7374 714.56 67.1967 711.735 62.0778 710C61.4001 709.768 60.945 709.138 60.945 708.422V696.274C60.945 695.762 61.182 695.279 61.5849 694.961C61.9925 694.644 62.5186 694.535 63.0115 694.658C71.7611 696.848 79.7712 701.388 86.1698 707.792C92.5684 714.195 97.1091 722.2 99.2989 730.95C99.4221 731.448 99.3083 731.974 98.9955 732.381C98.678 732.789 98.1945 733.021 97.6826 733.021H85.5347C85.0797 733.021 84.6626 732.836 84.3545 732.528L84.364 732.533ZM77.9274 716.039C81.8424 719.954 84.7953 724.542 86.7196 729.689H95.5071C93.2984 722.333 89.2838 715.612 83.8189 710.147C78.354 704.682 71.6331 700.668 64.2818 698.464V707.251C69.4292 709.171 74.0172 712.124 77.9322 716.043L77.9274 716.039Z" fill="white"/>
<path d="M15.4908 778.48C9.09222 772.081 4.54682 764.071 2.35707 755.321C2.23383 754.824 2.34759 754.298 2.66042 753.895C2.97798 753.487 3.46141 753.255 3.9733 753.255H16.1212C16.8369 753.255 17.472 753.71 17.6995 754.388C19.4295 759.507 22.2544 764.043 26.0936 767.882C29.928 771.716 34.4687 774.541 39.5876 776.276C40.2654 776.503 40.7203 777.138 40.7203 777.854V790.002C40.7203 790.514 40.4834 790.997 40.0805 791.315C39.6729 791.632 39.1467 791.741 38.6491 791.618C29.8995 789.428 21.8942 784.888 15.4908 778.489V778.48ZM6.15833 756.582C8.36704 763.938 12.3816 770.659 17.8465 776.124C23.3114 781.589 30.0323 785.603 37.3883 787.812V779.025C32.241 777.105 27.6529 774.152 23.7379 770.237C19.8229 766.322 16.8701 761.734 14.9458 756.587H6.15833V756.582Z" fill="white"/>
<path d="M61.4411 791.173C61.1282 790.86 60.9529 790.438 60.9529 789.993V777.845C60.9529 777.129 61.4079 776.494 62.0856 776.266C67.2045 774.536 71.7404 771.712 75.5796 767.872C79.4188 764.033 82.2389 759.497 83.9736 754.378C84.2011 753.701 84.8363 753.246 85.552 753.246H97.6999C98.2118 753.246 98.6952 753.483 99.0128 753.885C99.3304 754.288 99.4394 754.819 99.3162 755.312C97.1217 764.062 92.581 772.067 86.1824 778.47C79.7837 784.874 71.7736 789.414 63.0241 791.604C62.5264 791.727 62.0003 791.614 61.5974 791.301C61.5453 791.253 61.4932 791.211 61.4458 791.163L61.4411 791.173ZM64.2849 779.02V787.808C71.6409 785.599 78.3618 781.584 83.8267 776.119C89.2916 770.655 93.3014 763.934 95.5149 756.578H86.7274C84.8079 761.725 81.855 766.308 77.9352 770.228C74.0202 774.143 69.4322 777.101 64.2849 779.02Z" fill="white"/>
<path d="M2.79386 732.533C2.74646 732.486 2.69908 732.433 2.66116 732.381C2.3436 731.978 2.23458 731.448 2.35781 730.95C4.54756 722.2 9.08822 714.19 15.4916 707.792C21.8949 701.393 29.9003 696.848 38.6498 694.658C39.1475 694.535 39.6736 694.648 40.0765 694.961C40.4794 695.279 40.7164 695.762 40.7164 696.274V708.422C40.7164 709.138 40.2614 709.773 39.5836 710C34.4647 711.73 29.9287 714.555 26.0896 718.394C22.2551 722.229 19.4303 726.769 17.6955 731.888C17.468 732.566 16.8329 733.021 16.1172 733.021H3.96933C3.52379 733.021 3.09719 732.846 2.78911 732.538L2.79386 732.533ZM37.3843 698.464C30.0283 700.673 23.3074 704.687 17.8425 710.152C12.3776 715.617 8.36778 722.338 6.15433 729.694H14.9418C16.8613 724.547 19.8142 719.963 23.7339 716.043C27.6489 712.128 32.237 709.176 37.3843 707.251V698.464Z" fill="white"/>
<path d="M77.9315 716.039C62.9919 701.099 38.6772 701.094 23.7376 716.039C8.79327 730.983 8.79801 755.293 23.7376 770.233C38.6772 785.172 62.9872 785.177 77.9315 770.233C92.8759 755.288 92.8711 730.978 77.9315 716.039Z" fill="white"/>
<path d="M64.6544 756.813L37.1267 756.996C35.9671 757.004 35.0333 757.95 35.041 759.109L35.0475 760.091C35.0552 761.25 36.0015 762.184 37.1611 762.176L64.6888 761.994C65.8484 761.986 66.7822 761.04 66.7745 759.88L66.768 758.899C66.7603 757.739 65.814 756.806 64.6544 756.813Z" fill="#110A1D"/>
<path d="M40.8772 740.197C40.5786 740.197 40.2753 740.131 40.0004 739.998L37.8533 738.96C36.9195 738.505 36.4929 737.401 36.8816 736.439L37.8675 733.984C38.1708 733.235 38.8865 732.746 39.6923 732.742C40.0383 732.742 40.3795 732.827 40.6829 733.002L43.2423 734.462C43.721 734.732 44.067 735.202 44.1903 735.742C44.3135 736.282 44.2045 736.851 43.8917 737.306L42.4887 739.339C42.1238 739.87 41.5171 740.193 40.8725 740.193L40.8772 740.197Z" fill="#110A1D"/>
<path d="M60.6921 740.065C60.0475 740.065 59.4361 739.756 59.0664 739.23L57.6776 737.273C57.3553 736.823 57.2416 736.254 57.3553 735.713C57.4691 735.173 57.8103 734.699 58.2891 734.42L60.929 732.87C61.2277 732.694 61.5689 732.6 61.9149 732.595C62.7207 732.59 63.4459 733.069 63.7587 733.813L64.754 736.197C65.1522 737.154 64.7398 738.268 63.8156 738.733L61.569 739.856C61.2988 739.989 60.9954 740.065 60.6968 740.065H60.6921Z" fill="#110A1D"/>
<path d="M38.7146 755.156C37.506 755.165 36.4206 754.407 36.0083 753.269L31.4155 740.628C31.1217 740.771 30.8088 740.88 30.4912 740.96C30.1168 741.055 29.7376 741.102 29.3537 741.102C29.1309 741.102 28.9129 741.093 28.6996 741.064C26.3061 740.761 24.4908 738.709 24.4766 736.292C24.4576 733.618 26.6189 731.429 29.2921 731.41C31.9653 731.391 34.155 733.552 34.1693 736.225C34.1693 736.841 34.065 737.434 33.8469 737.988C33.7284 738.292 33.5816 738.581 33.4109 738.856L42.1462 743.084L48.8292 733.4C48.5496 733.282 48.2794 733.135 48.0235 732.96C47.54 732.633 47.1182 732.225 46.7769 731.746C46.1987 730.931 45.8858 729.969 45.8811 728.973C45.8621 726.3 48.0235 724.111 50.6967 724.092C50.8152 724.092 50.9384 724.092 51.0569 724.101C53.4504 724.262 55.3842 726.182 55.5596 728.575C55.6402 729.708 55.3416 730.794 54.697 731.718C54.3558 732.201 53.9386 732.614 53.4599 732.941C53.2087 733.116 52.9386 733.263 52.6589 733.381L59.4604 742.965L68.0535 738.666C67.8924 738.358 67.7644 738.036 67.6696 737.699C67.5559 737.292 67.4943 736.865 67.4943 736.434C67.4943 736.239 67.5037 736.045 67.5227 735.856C67.7976 733.419 69.8546 731.571 72.305 731.557C74.9782 731.538 77.168 733.699 77.1822 736.372C77.2012 738.922 75.22 741.064 72.6747 741.24L72.3714 741.249C71.8785 741.249 71.395 741.183 70.9258 741.041C70.6225 740.946 70.3286 740.827 70.0537 740.676L65.7405 753.07C65.3471 754.212 64.2665 754.98 63.0578 754.99L38.7146 755.151V755.156Z" fill="#110A1D"/>
<path d="M49.9825 672C37.2839 672 24.5958 667.171 14.9262 657.501C-4.40264 638.172 -4.40264 606.728 14.9262 587.399C24.294 578.031 36.7427 572.879 49.9825 572.879C63.2223 572.879 75.671 578.031 85.0387 587.399C104.368 606.728 104.368 638.172 85.0387 657.501C75.3795 667.16 62.681 672 49.9825 672ZM17.5284 654.899C35.4208 672.791 64.5337 672.791 82.4262 654.899C100.319 637.006 100.319 607.893 82.4262 590.001C73.7558 581.33 62.2334 576.563 49.9721 576.563C37.7107 576.563 26.1883 581.341 17.5179 590.001C-0.374513 607.893 -0.374513 637.006 17.5179 654.899H17.5284Z" fill="#9DADF2"/>
<path d="M49.3268 640.993C49.5037 641.42 49.9201 641.669 50.3572 641.669C50.503 641.669 50.6487 641.638 50.7945 641.586C54.2918 640.118 57.4768 637.849 59.9957 635.018C60.4016 634.56 60.36 633.853 59.902 633.447C59.444 633.041 58.7362 633.082 58.3303 633.54C56.03 636.132 53.126 638.203 49.9305 639.536C49.3685 639.775 49.0978 640.431 49.3372 640.993H49.3268Z" fill="#9DADF2"/>
<path d="M68.8727 605.312L50.387 597.922C50.1164 597.818 49.8249 597.818 49.5543 597.922L31.0685 605.312C30.6418 605.479 30.3711 605.885 30.3711 606.343V619.582C30.3919 631.802 38.1152 642.846 49.5855 647.051C49.7104 647.092 49.8353 647.113 49.9706 647.113C50.1059 647.113 50.2308 647.092 50.3557 647.051C61.826 642.835 69.5493 631.802 69.5701 619.582V606.343C69.5701 605.885 69.2995 605.479 68.8727 605.312ZM67.3426 619.582C67.3218 630.699 60.348 640.826 49.981 644.813C39.614 640.826 32.6298 630.699 32.609 619.582V607.102L49.981 600.16L67.3426 607.102V619.582Z" fill="#9DADF2"/>
<path d="M42.2583 607.05C41.9877 606.936 41.6859 606.936 41.4048 607.05L37.002 608.809C36.5752 608.976 36.3046 609.382 36.3046 609.84V614.534C36.3046 615.148 36.8042 615.648 37.4183 615.648C38.0324 615.648 38.532 615.148 38.532 614.534V610.6L42.2271 609.122C42.5081 609.007 42.7163 608.799 42.8412 608.518C42.9557 608.247 42.9557 607.945 42.8412 607.664C42.7267 607.383 42.5185 607.175 42.2479 607.05H42.2583Z" fill="#9DADF2"/>
<path d="M78.1258 594.3C70.6108 586.774 60.6081 582.642 49.9705 582.642C39.3328 582.642 29.3406 586.785 21.8151 594.3C6.29584 609.819 6.29584 635.081 21.8151 650.611C29.58 658.375 39.77 662.247 49.9705 662.247C60.1709 662.247 70.361 658.365 78.1258 650.611C93.6451 635.091 93.6451 609.829 78.1258 594.3ZM72.6197 619.582C72.6509 633.707 63.6266 646.062 50.1682 650.34C50.0433 650.382 49.908 650.382 49.7727 650.34C36.3143 646.062 27.29 633.707 27.3213 619.582V603.959C27.3213 603.699 27.4774 603.459 27.7272 603.355L49.7311 594.56C49.8039 594.529 49.8872 594.518 49.9705 594.518C50.0537 594.518 50.137 594.529 50.2098 594.56L72.2137 603.366C72.4635 603.459 72.6197 603.699 72.6197 603.969V619.593V619.582Z" fill="#9DADF2"/>
<path d="M50.1272 545.389C22.8045 545.389 0.582031 523.156 0.582031 495.844C0.582031 468.532 22.8149 446.299 50.1272 446.299C77.4394 446.299 99.6723 468.532 99.6723 495.844C99.6723 523.156 77.4394 545.389 50.1272 545.389ZM50.1272 449.599C24.626 449.599 3.88161 470.343 3.88161 495.844C3.88161 521.345 24.626 542.09 50.1272 542.09C75.6283 542.09 96.3727 521.345 96.3727 495.844C96.3727 470.343 75.6283 449.599 50.1272 449.599Z" fill="white"/>
<path d="M66.1978 464.899C65.948 464.899 65.6982 464.847 65.4692 464.733C60.6708 462.36 55.5081 461.152 50.1269 461.152C44.7456 461.152 39.5829 462.36 34.7845 464.733C34.1496 465.045 33.3898 464.92 32.8902 464.421L24.3759 455.906C24.0116 455.542 23.8451 455.042 23.9075 454.532C23.97 454.022 24.2614 453.575 24.6986 453.315C32.3697 448.714 41.165 446.289 50.1373 446.289C59.1095 446.289 67.9048 448.724 75.576 453.315C76.0131 453.575 76.3045 454.022 76.367 454.532C76.4294 455.042 76.2525 455.542 75.8987 455.906L67.3843 464.421C67.0617 464.733 66.6454 464.899 66.2082 464.899H66.1978ZM50.1269 457.853C55.6122 457.853 60.8998 458.998 65.8543 461.256L72.0162 455.095C65.313 451.483 57.7876 449.588 50.1269 449.588C42.4661 449.588 34.9406 451.483 28.2375 455.095L34.3994 461.256C39.3539 458.998 44.6415 457.853 50.1269 457.853Z" fill="white"/>
<path d="M50.1251 545.389C41.1528 545.389 32.3575 542.954 24.6864 538.363C24.2492 538.103 23.9577 537.656 23.8953 537.146C23.8328 536.636 24.0098 536.136 24.3637 535.772L32.878 527.257C33.3776 526.758 34.1478 526.633 34.7723 526.945C39.5707 529.318 44.7334 530.526 50.1147 530.526C55.4959 530.526 60.6586 529.318 65.457 526.945C66.0919 526.633 66.8517 526.758 67.3514 527.257L75.8656 535.772C76.2299 536.136 76.3965 536.636 76.334 537.146C76.2716 537.656 75.9801 538.103 75.5429 538.363C67.8718 542.964 59.0765 545.389 50.1042 545.389H50.1251ZM28.2357 536.584C34.9388 540.195 42.4643 542.09 50.1251 542.09C57.7858 542.09 65.3112 540.195 72.0144 536.584L65.8525 530.422C60.898 532.68 55.6104 533.825 50.1251 533.825C44.6397 533.825 39.3521 532.68 34.3976 530.422L28.2357 536.584Z" fill="white"/>
<path d="M91.2329 522.074C90.7958 522.074 90.3794 521.907 90.0672 521.595L81.5529 513.081C81.0533 512.581 80.9284 511.811 81.2407 511.187C83.6138 506.388 84.8212 501.226 84.8212 495.844C84.8212 490.463 83.6138 485.3 81.2407 480.502C80.9284 479.867 81.0533 479.097 81.5529 478.608L90.0672 470.093C90.4315 469.729 90.9311 469.562 91.4411 469.625C91.9512 469.687 92.3987 469.979 92.6589 470.416C97.2595 478.087 99.6847 486.882 99.6847 495.855C99.6847 504.827 97.2595 513.622 92.6589 521.293C92.3987 521.731 91.9512 522.022 91.4411 522.084C91.3683 522.084 91.3058 522.084 91.2329 522.084V522.074ZM84.7067 511.561L90.8687 517.723C94.4805 511.02 96.3748 503.495 96.3748 495.834C96.3748 488.173 94.4805 480.648 90.8687 473.945L84.7067 480.106C86.9654 485.061 88.1104 490.349 88.1104 495.834C88.1104 501.319 86.9654 506.607 84.7067 511.561Z" fill="white"/>
<path d="M9.02373 522.074C8.95087 522.074 8.88841 522.074 8.82596 522.064C8.31594 522.001 7.86832 521.71 7.6081 521.273C3.00749 513.601 0.582275 504.806 0.582275 495.834C0.582275 486.862 3.00749 478.066 7.6081 470.395C7.86832 469.958 8.31594 469.667 8.82596 469.604C9.33598 469.542 9.83561 469.719 10.1999 470.072L18.7142 478.587C19.2138 479.086 19.3387 479.857 19.0264 480.481C16.6532 485.28 15.4458 490.442 15.4458 495.824C15.4458 501.205 16.6532 506.367 19.0264 511.166C19.3387 511.801 19.2138 512.571 18.7142 513.06L10.1999 521.574C9.88765 521.887 9.47125 522.064 9.03408 522.064L9.02373 522.074ZM9.388 473.945C5.77621 480.648 3.88186 488.173 3.88186 495.834C3.88186 503.495 5.77621 511.02 9.388 517.723L15.5499 511.561C13.2912 506.607 12.1463 501.319 12.1463 495.834C12.1463 490.349 13.2912 485.061 15.5499 480.106L9.388 473.945Z" fill="white"/>
<path d="M50.1282 457.853C29.1861 457.853 12.1367 474.892 12.1367 495.844C12.1367 516.797 29.1757 533.836 50.1282 533.836C71.0808 533.836 88.1198 516.797 88.1198 495.844C88.1198 474.892 71.0808 457.853 50.1282 457.853ZM71.5075 483.364C73.3082 486.445 74.4011 489.807 74.755 493.377C74.7654 493.523 74.703 493.659 74.5781 493.731C71.8615 495.397 69.4258 497.437 67.3233 499.82C67.2296 499.935 67.0735 499.977 66.9381 499.925L62.2439 498.394C62.1086 498.353 62.0149 498.238 61.994 498.093C61.4632 494.21 60.2559 490.494 58.4031 487.039C58.3407 486.914 58.351 486.768 58.4343 486.654L61.3383 482.657C61.4112 482.563 61.5257 482.5 61.6402 482.5C61.6714 482.5 61.6922 482.5 61.7235 482.5C64.8252 483.187 68.0102 483.416 71.1745 483.156C71.3202 483.146 71.4555 483.219 71.5284 483.344L71.5075 483.364ZM59.4336 498.748C59.444 498.852 59.4127 498.956 59.3503 499.029C56.8834 501.871 53.74 504.15 50.274 505.608C50.1803 505.649 50.0866 505.649 49.9929 505.608C46.5268 504.14 43.3834 501.86 40.9166 499.029C40.8541 498.956 40.8229 498.852 40.8333 498.748C41.3121 494.98 42.4883 491.379 44.3098 488.048C44.3618 487.955 44.4451 487.892 44.5492 487.871C46.3811 487.486 48.2547 487.288 50.1387 487.288C52.0226 487.288 53.8962 487.486 55.7281 487.871C55.8322 487.892 55.9154 487.955 55.9675 488.048C57.789 491.379 58.9548 494.98 59.444 498.748H59.4336ZM58.8715 472.914C58.8715 472.914 58.9964 472.81 59.1213 472.81C59.1629 472.81 59.2149 472.81 59.267 472.841C63.0974 474.361 66.5218 476.859 69.1864 480.054C69.3218 480.211 69.2697 480.377 69.2385 480.44C69.2177 480.492 69.124 480.658 68.9054 480.658C66.5426 480.689 64.1903 480.419 61.9108 479.877C61.8171 479.857 61.7338 479.794 61.6818 479.711C60.464 477.702 59.4856 475.537 58.7778 473.289C58.7154 473.091 58.8298 472.956 58.8819 472.914H58.8715ZM44.8719 471.665C48.3171 470.926 51.9497 470.926 55.395 471.665C55.5303 471.696 55.6448 471.8 55.676 471.936C56.415 475.027 57.612 477.983 59.2254 480.721C59.2982 480.845 59.2878 481.002 59.2045 481.127L56.3214 485.103C56.2381 485.217 56.0924 485.28 55.957 485.248C52.1475 484.478 48.1193 484.478 44.3098 485.248C44.1745 485.28 44.0288 485.217 43.9455 485.103L41.0623 481.127C40.979 481.012 40.9686 480.845 41.0415 480.721C42.6548 477.983 43.8518 475.027 44.5908 471.936C44.6221 471.8 44.7366 471.696 44.8719 471.665ZM31.0804 480.054C33.7451 476.849 37.1695 474.35 40.9998 472.841C41.0519 472.82 41.1039 472.81 41.1456 472.81C41.2809 472.81 41.3642 472.883 41.3954 472.914C41.4474 472.966 41.5619 473.091 41.4994 473.289C40.7917 475.547 39.8133 477.702 38.5955 479.711C38.5434 479.794 38.4602 479.857 38.3665 479.877C36.087 480.419 33.7346 480.689 31.3719 480.658C31.1533 480.658 31.0596 480.492 31.0388 480.44C31.0075 480.377 30.9555 480.211 31.0908 480.054H31.0804ZM28.7593 483.364C28.8217 483.25 28.9466 483.177 29.0819 483.177C29.0819 483.177 29.1028 483.177 29.1132 483.177C32.2878 483.427 35.4729 483.208 38.5643 482.521C38.71 482.49 38.8557 482.542 38.939 482.667L41.8429 486.664C41.9262 486.778 41.9366 486.935 41.8742 487.049C40.0215 490.505 38.814 494.221 38.2832 498.103C38.2624 498.238 38.1687 498.353 38.0334 498.405L33.3391 499.935C33.2038 499.977 33.0477 499.935 32.954 499.831C30.8514 497.447 28.4158 495.407 25.6991 493.742C25.5846 493.669 25.5118 493.534 25.5222 493.388C25.8761 489.818 26.969 486.445 28.7697 483.375L28.7593 483.364ZM29.8938 509.011C29.8314 509.209 29.6545 509.251 29.5816 509.261C29.5087 509.261 29.3422 509.261 29.2277 509.095C27.0106 505.608 25.6991 501.569 25.4389 497.426C25.4285 497.218 25.5638 497.114 25.6263 497.083C25.6887 497.052 25.8553 496.979 26.0218 497.104C27.9474 498.467 29.6961 500.07 31.2261 501.85C31.2886 501.923 31.3198 502.017 31.3094 502.121C31.1221 504.463 30.6433 506.784 29.8834 509.022L29.8938 509.011ZM40.1776 518.514C36.9301 517.088 34.0677 514.996 31.6737 512.311C31.58 512.207 31.5488 512.051 31.6009 511.926C32.8187 508.99 33.5889 505.899 33.8907 502.735C33.9011 502.589 34.0053 502.464 34.1406 502.423L38.7828 500.913C38.7828 500.913 38.8556 500.893 38.8973 500.893C39.0014 500.893 39.0951 500.934 39.1679 501.017C41.7701 503.932 45.028 506.305 48.5981 507.877C48.7334 507.939 48.8167 508.064 48.8167 508.21V513.091C48.8167 513.237 48.7334 513.372 48.5981 513.425C45.6837 514.684 42.9775 516.381 40.5523 518.452C40.4482 518.546 40.2921 518.566 40.1672 518.504L40.1776 518.514ZM56.5503 519.545C56.5399 519.618 56.4879 519.784 56.2797 519.836C52.262 520.856 48.0153 520.856 43.9975 519.836C43.7998 519.784 43.7373 519.618 43.7269 519.545C43.7165 519.472 43.6957 519.305 43.8726 519.17C45.767 517.765 47.8279 516.589 50.0033 515.683C50.097 515.642 50.1907 515.642 50.2843 515.683C52.4493 516.589 54.5103 517.765 56.415 519.17C56.5816 519.295 56.5712 519.472 56.5608 519.545H56.5503ZM68.614 512.321C66.22 515.007 63.3576 517.088 60.1101 518.514C59.9748 518.577 59.8291 518.546 59.725 518.462C57.2998 516.391 54.6039 514.694 51.6791 513.435C51.5438 513.372 51.4605 513.248 51.4605 513.102V508.22C51.4605 508.074 51.5438 507.939 51.6791 507.887C55.2493 506.315 58.5176 503.942 61.1093 501.028C61.1822 500.945 61.2759 500.903 61.38 500.903C61.4216 500.903 61.4528 500.903 61.4944 500.924L66.1367 502.433C66.272 502.475 66.3761 502.6 66.3865 502.745C66.6884 505.909 67.4586 508.99 68.6764 511.936C68.7285 512.061 68.7076 512.217 68.6036 512.321H68.614ZM71.0496 509.105C70.9351 509.282 70.7582 509.282 70.6957 509.271C70.6228 509.271 70.4563 509.219 70.3834 509.022C69.634 506.784 69.1552 504.463 68.9574 502.121C68.9574 502.027 68.9783 501.923 69.0407 501.85C70.5708 500.07 72.3194 498.478 74.245 497.104C74.3179 497.052 74.3908 497.031 74.4532 497.031C74.5365 497.031 74.5989 497.062 74.6406 497.083C74.703 497.114 74.8487 497.218 74.8279 497.426C74.5677 501.569 73.2562 505.608 71.0392 509.095L71.0496 509.105Z" fill="white"/>
<path d="M49.9825 421.932C37.2839 421.932 24.5958 417.103 14.9262 407.433C-4.40264 388.104 -4.40264 356.66 14.9262 337.331C24.294 327.963 36.7427 322.811 49.9825 322.811C63.2223 322.811 75.671 327.963 85.0387 337.331C104.368 356.66 104.368 388.104 85.0387 407.433C75.3795 417.092 62.681 421.932 49.9825 421.932ZM17.5284 404.831C35.4208 422.724 64.5337 422.724 82.4262 404.831C100.319 386.939 100.319 357.826 82.4262 339.933C73.7558 331.263 62.2334 326.496 49.9721 326.496C37.7107 326.496 26.1883 331.273 17.5179 339.933C-0.374513 357.826 -0.374513 386.939 17.5179 404.831H17.5284Z" fill="#9DADF2"/>
<path d="M49.3268 390.935C49.5037 391.362 49.9201 391.612 50.3572 391.612C50.503 391.612 50.6487 391.581 50.7945 391.529C54.2918 390.061 57.4768 387.792 59.9957 384.961C60.4016 384.503 60.36 383.795 59.902 383.389C59.444 382.983 58.7362 383.025 58.3303 383.483C56.03 386.075 53.126 388.146 49.9305 389.478C49.3685 389.718 49.0978 390.373 49.3372 390.935H49.3268Z" fill="#9DADF2"/>
<path d="M68.8727 355.244L50.387 347.854C50.1164 347.75 49.8249 347.75 49.5543 347.854L31.0685 355.244C30.6418 355.411 30.3711 355.817 30.3711 356.275V369.514C30.3919 381.734 38.1152 392.778 49.5855 396.983C49.7104 397.024 49.8353 397.045 49.9706 397.045C50.1059 397.045 50.2308 397.024 50.3557 396.983C61.826 392.767 69.5493 381.734 69.5701 369.514V356.275C69.5701 355.817 69.2995 355.411 68.8727 355.244ZM67.3426 369.514C67.3218 380.631 60.348 390.758 49.981 394.745C39.614 390.758 32.6298 380.631 32.609 369.514V357.034L49.981 350.092L67.3426 357.034V369.514Z" fill="#9DADF2"/>
<path d="M42.2583 356.982C41.9877 356.868 41.6859 356.868 41.4048 356.982L37.002 358.741C36.5752 358.908 36.3046 359.314 36.3046 359.772V364.466C36.3046 365.08 36.8042 365.58 37.4183 365.58C38.0324 365.58 38.532 365.08 38.532 364.466V360.532L42.2271 359.054C42.5081 358.939 42.7163 358.731 42.8412 358.45C42.9557 358.179 42.9557 357.877 42.8412 357.596C42.7267 357.315 42.5185 357.107 42.2479 356.982H42.2583Z" fill="#9DADF2"/>
<path d="M78.1258 344.232C70.6108 336.706 60.6081 332.574 49.9705 332.574C39.3328 332.574 29.3406 336.717 21.8151 344.232C6.29584 359.751 6.29584 385.013 21.8151 400.543C29.58 408.307 39.77 412.179 49.9705 412.179C60.1709 412.179 70.361 408.297 78.1258 400.543C93.6451 385.023 93.6451 359.762 78.1258 344.232ZM72.6197 369.514C72.6509 383.639 63.6266 395.994 50.1682 400.272C50.0433 400.314 49.908 400.314 49.7727 400.272C36.3143 395.994 27.29 383.639 27.3213 369.514V353.891C27.3213 353.631 27.4774 353.392 27.7272 353.287L49.7311 344.492C49.8039 344.461 49.8872 344.451 49.9705 344.451C50.0537 344.451 50.137 344.461 50.2098 344.492L72.2137 353.298C72.4635 353.392 72.6197 353.631 72.6197 353.902V369.525V369.514Z" fill="#9DADF2"/>
<path d="M50.3966 299.621C23.0739 299.621 0.85144 277.388 0.85144 250.076C0.85144 222.763 23.0843 200.531 50.3966 200.531C77.7088 200.531 99.9417 222.763 99.9417 250.076C99.9417 277.388 77.7088 299.621 50.3966 299.621ZM50.3966 203.83C24.8954 203.83 4.15096 224.574 4.15096 250.076C4.15096 275.577 24.8954 296.321 50.3966 296.321C75.8977 296.321 96.6422 275.577 96.6422 250.076C96.6422 224.574 75.8977 203.83 50.3966 203.83Z" fill="#478BF9"/>
<path d="M82.7173 214.729L67.379 230.067L70.3966 233.085L85.7349 217.746L82.7173 214.729Z" fill="#478BF9"/>
<path d="M29.9241 267.521L14.5859 282.859L17.6035 285.876L32.9417 270.538L29.9241 267.521Z" fill="#478BF9"/>
<path d="M70.8615 267.536L67.8438 270.553L83.1821 285.891L86.1997 282.874L70.8615 267.536Z" fill="#478BF9"/>
<path d="M17.5997 214.267L14.5821 217.285L29.913 232.616L32.9306 229.598L17.5997 214.267Z" fill="#478BF9"/>
<path d="M62.4807 251.408C63.4799 250.409 63.4799 248.795 62.4807 247.806L60.3573 245.693C59.358 244.694 57.7448 244.694 56.7559 245.693L55.6109 246.838L54.2891 245.516C53.2899 244.517 51.6765 244.517 50.6877 245.516L49.5428 246.672L48.2208 245.34C47.2216 244.34 45.6082 244.34 44.6194 245.34L37.5936 252.365C37.5416 252.417 37.5416 252.501 37.5936 252.563C38.5304 253.5 40.0605 253.5 41.0077 252.563L45.5354 248.035C46.0246 247.546 46.8157 247.546 47.3049 248.035L47.638 248.368C47.7004 248.431 47.7004 248.525 47.638 248.587L43.8596 252.365C43.8076 252.417 43.8076 252.501 43.8596 252.563C44.7964 253.5 46.3265 253.5 47.2737 252.563L51.6141 248.223C52.1033 247.734 52.8943 247.734 53.3835 248.223L53.7166 248.556C53.7687 248.608 53.7687 248.691 53.7166 248.754L50.0736 252.397C50.0216 252.449 50.0216 252.532 50.0736 252.594C51.0104 253.531 52.5404 253.531 53.4876 252.594L57.6823 248.4C58.1715 247.91 58.9625 247.91 59.4517 248.4L60.1699 249.118C60.451 249.399 60.451 249.867 60.1699 250.148L60.0555 250.263C59.7744 250.544 59.306 250.544 59.025 250.263L58.0986 249.336C58.0466 249.284 57.9633 249.284 57.9009 249.336L56.2979 250.939C56.2459 250.991 56.2459 251.075 56.2979 251.137L57.7448 252.584C58.744 253.583 60.3573 253.583 61.3461 252.584L62.4911 251.439L62.4807 251.408Z" fill="#478BF9"/>
<path d="M50.3976 212.084C29.4138 212.084 12.4061 229.092 12.4061 250.076C12.4061 271.059 29.4138 288.067 50.3976 288.067C71.3815 288.067 88.3892 271.059 88.3892 250.076C88.3892 229.092 71.3815 212.084 50.3976 212.084ZM51.9485 223.815C58.048 224.168 63.5854 226.604 67.8737 230.414L62.3884 235.899C59.526 233.474 55.9142 231.902 51.9485 231.569V223.815ZM48.8571 223.815V231.569C44.8914 231.892 41.2797 233.474 38.4173 235.899L32.9319 230.414C37.2203 226.604 42.7577 224.168 48.8571 223.815ZM30.7461 232.599L36.2314 238.085C33.8062 240.947 32.2346 244.559 31.9015 248.525H24.147C24.5009 242.425 26.9366 236.888 30.7461 232.599ZM24.147 251.616H31.9015C32.2241 255.582 33.8062 259.193 36.2314 262.056L30.7461 267.541C26.9366 263.253 24.5009 257.715 24.147 251.616ZM48.8571 276.326C42.7577 275.972 37.2203 273.537 32.9319 269.727L38.4173 264.242C41.2797 266.667 44.8914 268.239 48.8571 268.572V276.326ZM34.4308 250.065C34.4308 241.249 41.5815 234.098 50.3976 234.098C59.2138 234.098 66.3645 241.249 66.3645 250.065C66.3645 258.881 59.2138 266.032 50.3976 266.032C41.5815 266.032 34.4308 258.881 34.4308 250.065ZM51.9485 276.326V268.572C55.9142 268.249 59.526 266.667 62.3884 264.242L67.8737 269.727C63.5854 273.537 58.048 275.972 51.9485 276.326ZM70.0595 267.541L64.5742 262.056C66.9994 259.193 68.5711 255.582 68.9042 251.616H76.6586C76.3047 257.715 73.8691 263.253 70.0595 267.541ZM68.9042 248.525C68.5815 244.559 66.9994 240.947 64.5742 238.085L70.0595 232.599C73.8691 236.888 76.3047 242.425 76.6586 248.525H68.9042Z" fill="#478BF9"/>
<path d="M15.4881 155.26C-4.00167 135.77 -4.00167 104.061 15.4881 84.5716C34.9778 65.0819 66.6865 65.0819 86.1762 84.5716C105.666 104.061 105.666 135.77 86.1762 155.26C66.6865 174.75 34.9778 174.75 15.4881 155.26ZM83.8206 86.9273C65.6295 68.7362 36.0347 68.7362 17.8484 86.9273C-0.34262 105.118 -0.34262 134.713 17.8484 152.899C36.0395 171.09 65.6343 171.09 83.8206 152.899C102.012 134.708 102.012 105.114 83.8206 86.9273Z" fill="white"/>
<path d="M84.3638 109.313C84.1884 109.138 84.0462 108.915 83.9657 108.668C82.2357 103.55 79.4108 99.0136 75.5716 95.1744C71.7372 91.34 67.1965 88.5151 62.0776 86.7804C61.3998 86.5481 60.9448 85.9178 60.9448 85.2021V73.0542C60.9448 72.5423 61.1818 72.0588 61.5847 71.7413C61.9923 71.4237 62.5184 71.3147 63.0113 71.4379C71.7609 73.6277 79.771 78.1683 86.1696 84.5717C92.5682 90.975 97.1089 98.9804 99.2987 107.73C99.4219 108.228 99.3081 108.754 98.9953 109.161C98.6777 109.569 98.1943 109.801 97.6824 109.801H85.5345C85.0795 109.801 84.6624 109.616 84.3543 109.308L84.3638 109.313ZM77.9272 92.8188C81.8422 96.7338 84.7951 101.322 86.7194 106.469H95.5069C93.2982 99.1131 89.2836 92.3922 83.8187 86.9273C78.3538 81.4624 71.6329 77.4479 64.2816 75.2439V84.0314C69.4289 85.9509 74.017 88.9038 77.932 92.8235L77.9272 92.8188Z" fill="white"/>
<path d="M15.4867 155.26C9.0881 148.861 4.5427 140.851 2.35295 132.101C2.22971 131.604 2.34347 131.078 2.6563 130.675C2.97386 130.267 3.45729 130.035 3.96918 130.035H16.1171C16.8328 130.035 17.4679 130.49 17.6954 131.168C19.4254 136.287 22.2503 140.823 26.0894 144.662C29.9239 148.496 34.4646 151.321 39.5835 153.056C40.2612 153.283 40.7162 153.918 40.7162 154.634V166.782C40.7162 167.294 40.4792 167.777 40.0764 168.095C39.6687 168.412 39.1426 168.521 38.645 168.398C29.8954 166.208 21.8901 161.668 15.4867 155.269V155.26ZM6.15421 133.362C8.36292 140.718 12.3774 147.439 17.8423 152.904C23.3072 158.369 30.0282 162.384 37.3842 164.592V155.805C32.2369 153.885 27.6488 150.932 23.7338 147.017C19.8188 143.102 16.866 138.514 14.9416 133.367H6.15421V133.362Z" fill="white"/>
<path d="M61.433 167.953C61.1202 167.64 60.9448 167.218 60.9448 166.773V154.625C60.9448 153.909 61.3998 153.274 62.0776 153.046C67.1965 151.316 71.7324 148.492 75.5716 144.652C79.4108 140.813 82.2309 136.277 83.9656 131.158C84.1931 130.481 84.8283 130.026 85.544 130.026H97.6919C98.2038 130.026 98.6872 130.263 99.0048 130.665C99.3223 131.068 99.4314 131.599 99.3081 132.092C97.1136 140.842 92.573 148.847 86.1743 155.25C79.7757 161.654 71.7656 166.194 63.0161 168.384C62.5184 168.507 61.9923 168.394 61.5894 168.081C61.5373 168.033 61.4852 167.991 61.4378 167.943L61.433 167.953ZM64.2769 155.8V164.588C71.6329 162.379 78.3538 158.364 83.8187 152.9C89.2836 147.435 93.2934 140.714 95.5069 133.358H86.7194C84.7998 138.505 81.847 143.088 77.9272 147.008C74.0122 150.923 69.4242 153.881 64.2769 155.8Z" fill="white"/>
<path d="M2.78974 109.313C2.74234 109.266 2.69496 109.213 2.65704 109.161C2.33948 108.758 2.23046 108.228 2.35369 107.73C4.54344 98.9804 9.0841 90.9703 15.4875 84.5717C21.8908 78.173 29.8962 73.6277 38.6457 71.4379C39.1434 71.3147 39.6695 71.4284 40.0724 71.7412C40.4752 72.0588 40.7123 72.5423 40.7123 73.0542V85.2021C40.7123 85.9178 40.2572 86.5529 39.5795 86.7804C34.4606 88.5104 29.9246 91.3352 26.0854 95.1744C22.251 99.0088 19.4262 103.549 17.6914 108.668C17.4639 109.346 16.8288 109.801 16.1131 109.801H3.96521C3.51967 109.801 3.09307 109.626 2.78499 109.318L2.78974 109.313ZM37.3802 75.2439C30.0242 77.4526 23.3032 81.4672 17.8383 86.9321C12.3734 92.3969 8.36366 99.1179 6.15021 106.474H14.9376C16.8572 101.327 19.8101 96.7433 23.7298 92.8235C27.6448 88.9085 32.2329 85.9557 37.3802 84.0313V75.2439Z" fill="white"/>
<path d="M77.9313 92.8188C62.9917 77.8792 38.677 77.8744 23.7374 92.8188C8.79305 107.763 8.79779 132.073 23.7374 147.013C38.677 161.952 62.987 161.957 77.9313 147.013C92.8756 132.068 92.8709 107.758 77.9313 92.8188Z" fill="white"/>
<path d="M64.6503 133.593L37.1226 133.776C35.963 133.784 35.0292 134.73 35.0369 135.889L35.0434 136.871C35.0511 138.03 35.9974 138.964 37.157 138.956L64.6846 138.774C65.8442 138.766 66.7781 137.82 66.7704 136.66L66.7639 135.679C66.7562 134.519 65.8099 133.586 64.6503 133.593Z" fill="#110A1D"/>
<path d="M40.8731 116.977C40.5745 116.977 40.2712 116.911 39.9963 116.778L37.8492 115.74C36.9154 115.285 36.4888 114.181 36.8775 113.219L37.8634 110.764C38.1667 110.015 38.8824 109.526 39.6882 109.522C40.0342 109.522 40.3754 109.607 40.6788 109.782L43.2382 111.242C43.7169 111.512 44.0629 111.982 44.1862 112.522C44.3094 113.062 44.2004 113.631 43.8875 114.086L42.4846 116.119C42.1197 116.65 41.513 116.973 40.8684 116.973L40.8731 116.977Z" fill="#110A1D"/>
<path d="M60.6919 116.845C60.0472 116.845 59.4359 116.537 59.0662 116.01L57.6774 114.053C57.3551 113.603 57.2414 113.034 57.3551 112.494C57.4689 111.953 57.8101 111.479 58.2888 111.2L60.9288 109.65C61.2274 109.474 61.5687 109.38 61.9147 109.375C62.7205 109.37 63.4457 109.849 63.7585 110.593L64.7538 112.977C65.152 113.934 64.7396 115.048 63.8154 115.513L61.5687 116.636C61.2986 116.769 60.9952 116.845 60.6966 116.845H60.6919Z" fill="#110A1D"/>
<path d="M38.7105 131.936C37.5019 131.945 36.4165 131.187 36.0042 130.049L31.4114 117.408C31.1175 117.551 30.8047 117.66 30.4871 117.74C30.1127 117.835 29.7335 117.882 29.3496 117.882C29.1268 117.882 28.9088 117.873 28.6955 117.845C26.3019 117.541 24.4867 115.489 24.4724 113.072C24.4535 110.398 26.6148 108.209 29.288 108.19C31.9612 108.171 34.1509 110.332 34.1651 113.005C34.1651 113.621 34.0608 114.214 33.8428 114.768C33.7243 115.072 33.5774 115.361 33.4068 115.636L42.1421 119.864L48.8251 110.18C48.5455 110.062 48.2753 109.915 48.0193 109.74C47.5359 109.413 47.114 109.005 46.7728 108.526C46.1945 107.711 45.8817 106.749 45.877 105.753C45.858 103.08 48.0193 100.891 50.6925 100.872C50.811 100.872 50.9343 100.872 51.0528 100.881C53.4463 101.042 55.3801 102.962 55.5555 105.355C55.6361 106.488 55.3375 107.574 54.6929 108.498C54.3516 108.981 53.9345 109.394 53.4558 109.721C53.2046 109.896 52.9344 110.043 52.6548 110.161L59.4563 119.745L68.0494 115.446C67.8882 115.138 67.7603 114.816 67.6655 114.479C67.5518 114.072 67.4901 113.645 67.4901 113.214C67.4901 113.019 67.4996 112.825 67.5185 112.636C67.7934 110.199 69.8505 108.351 72.3009 108.337C74.9741 108.318 77.1639 110.479 77.1781 113.152C77.1971 115.702 75.2158 117.845 72.6706 118.02L72.3673 118.029C71.8743 118.029 71.3909 117.963 70.9217 117.821C70.6183 117.726 70.3244 117.608 70.0495 117.456L65.7364 129.85C65.343 130.992 64.2623 131.76 63.0537 131.77L38.7105 131.931V131.936Z" fill="#110A1D"/>
<path d="M100.411 -0.959878V118.635C100.411 119.624 99.6097 120.415 98.6313 120.415C97.6529 120.415 96.8514 119.614 96.8514 118.635V-0.959878C96.8514 -1.9487 97.6529 -2.73975 98.6313 -2.73975C99.6097 -2.73975 100.411 -1.93829 100.411 -0.959878Z" fill="white"/>
<path d="M4.86821 -1.22013V118.375C4.86821 119.364 4.06678 120.155 3.08837 120.155C2.10996 120.155 1.30847 119.354 1.30847 118.375V-1.22013C1.30847 -2.20895 2.10996 -3 3.08837 -3C4.06678 -3 4.86821 -2.19854 4.86821 -1.22013Z" fill="white"/>
</g>
</svg>
