<svg width="320" height="52" viewBox="0 0 320 52" fill="none" xmlns="http://www.w3.org/2000/svg">
<g opacity="0.6">
<path d="M247.262 50.1694C240.985 50.1694 234.713 47.7821 229.933 43.0023C220.378 33.4478 220.378 17.9045 229.933 8.35003C234.564 3.71944 240.717 1.17261 247.262 1.17261C253.806 1.17261 259.96 3.71944 264.59 8.35003C274.145 17.9045 274.145 33.4478 264.59 43.0023C259.816 47.7769 253.539 50.1694 247.262 50.1694ZM231.219 41.716C240.064 50.5604 254.454 50.5604 263.299 41.716C272.143 32.8716 272.143 18.4807 263.299 9.63631C259.013 5.35044 253.317 2.99396 247.256 2.99396C241.196 2.99396 235.5 5.35558 231.214 9.63631C222.37 18.4807 222.37 32.8716 231.214 41.716H231.219Z" fill="#7DDACF"/>
<path d="M248.168 20.5183L243.63 26.8776H246.352V31.4156L250.89 25.0614H248.168V20.5183Z" fill="#7DDACF"/>
<path d="M247.257 16.9834C242.287 16.9834 238.253 21.0172 238.253 25.9873C238.253 30.9575 242.287 34.981 247.257 34.981C252.227 34.981 256.261 30.9472 256.261 25.9873C256.261 21.0274 252.227 16.9834 247.257 16.9834ZM247.257 33.8696C242.894 33.8696 239.354 30.3298 239.354 25.9668C239.354 21.6037 242.894 18.0639 247.257 18.0639C251.62 18.0639 255.16 21.6037 255.16 25.9668C255.16 30.3298 251.62 33.8696 247.257 33.8696Z" fill="#7DDACF"/>
<path d="M261.175 11.7613C257.46 8.04139 252.516 5.99878 247.258 5.99878C241.999 5.99878 237.06 8.04654 233.34 11.7613C225.669 19.4326 225.669 31.9198 233.34 39.5963C237.178 43.4345 242.215 45.3537 247.258 45.3537C252.3 45.3537 257.337 43.4345 261.175 39.5963C268.846 31.9249 268.846 19.4378 261.175 11.7613ZM247.258 38.202C240.528 38.202 235.048 32.7224 235.048 25.9926C235.048 23.0188 236.113 20.2919 237.883 18.1618L236.391 16.6697C235.964 16.2427 235.964 15.5481 236.391 15.1159C236.818 14.6837 237.513 14.6889 237.945 15.1159L239.437 16.608C241.289 15.0593 243.62 14.0406 246.162 13.8245V12.816H245.153C244.263 12.816 243.527 12.0803 243.527 11.1902V10.3412C243.527 9.44085 244.263 8.71541 245.153 8.71541H249.372C250.262 8.71541 250.998 9.44085 250.998 10.3412V11.1902C250.998 12.0803 250.262 12.816 249.372 12.816H248.364V13.8245C250.911 14.0457 253.236 15.0644 255.088 16.608L256.58 15.1159C257.008 14.6889 257.702 14.6889 258.134 15.1159C258.561 15.543 258.561 16.2375 258.134 16.6697L256.642 18.1618C258.412 20.2919 259.477 23.0136 259.477 25.9926C259.477 32.7224 253.998 38.202 247.268 38.202H247.258Z" fill="#7DDACF"/>
<path d="M188.8 50.6598C175.295 50.6598 164.31 39.6699 164.31 26.1692C164.31 12.6684 175.3 1.67847 188.8 1.67847C202.301 1.67847 213.291 12.6684 213.291 26.1692C213.291 39.6699 202.301 50.6598 188.8 50.6598ZM188.8 3.30946C176.195 3.30946 165.941 13.5637 165.941 26.1692C165.941 38.7747 176.195 49.0288 188.8 49.0288C201.406 49.0288 211.66 38.7747 211.66 26.1692C211.66 13.5637 201.406 3.30946 188.8 3.30946Z" fill="white"/>
<path d="M204.781 8.69302L197.199 16.2749L198.69 17.7665L206.272 10.1847L204.781 8.69302Z" fill="white"/>
<path d="M178.683 34.7922L171.101 42.374L172.592 43.8657L180.174 36.2838L178.683 34.7922Z" fill="white"/>
<path d="M198.92 34.7908L197.428 36.2825L205.01 43.8643L206.502 42.3727L198.92 34.7908Z" fill="white"/>
<path d="M172.598 8.46345L171.106 9.95508L178.685 17.5333L180.176 16.0417L172.598 8.46345Z" fill="white"/>
<path d="M194.78 26.8276C195.274 26.3336 195.274 25.5361 194.78 25.0474L193.73 24.0029C193.236 23.509 192.439 23.509 191.95 24.0029L191.384 24.5689L190.731 23.9154C190.237 23.4215 189.439 23.4215 188.95 23.9154L188.384 24.4865L187.731 23.828C187.237 23.334 186.44 23.334 185.951 23.828L182.478 27.3009C182.452 27.3266 182.452 27.3678 182.478 27.3987C182.941 27.8617 183.697 27.8617 184.165 27.3987L186.404 25.1605C186.645 24.9187 187.036 24.9187 187.278 25.1605L187.443 25.3252C187.474 25.3561 187.474 25.4024 187.443 25.4332L185.575 27.3009C185.549 27.3266 185.549 27.3678 185.575 27.3987C186.038 27.8617 186.795 27.8617 187.263 27.3987L189.408 25.2532C189.65 25.0114 190.041 25.0114 190.283 25.2532L190.448 25.4178C190.473 25.4435 190.473 25.4847 190.448 25.5156L188.647 27.3163C188.621 27.3421 188.621 27.3832 188.647 27.4141C189.11 27.8772 189.866 27.8772 190.334 27.4141L192.408 25.3406C192.65 25.0988 193.041 25.0988 193.283 25.3406L193.638 25.6956C193.776 25.8346 193.776 26.0661 193.638 26.205L193.581 26.2616C193.442 26.4005 193.21 26.4005 193.072 26.2616L192.614 25.8037C192.588 25.778 192.547 25.778 192.516 25.8037L191.724 26.596C191.698 26.6218 191.698 26.6629 191.724 26.6938L192.439 27.409C192.933 27.9029 193.73 27.9029 194.219 27.409L194.785 26.843L194.78 26.8276Z" fill="white"/>
<path d="M188.801 7.38428C178.429 7.38428 170.021 15.7914 170.021 26.1639C170.021 36.5364 178.429 44.9435 188.801 44.9435C199.174 44.9435 207.581 36.5364 207.581 26.1639C207.581 15.7914 199.174 7.38428 188.801 7.38428ZM189.568 13.1828C192.583 13.3577 195.32 14.5617 197.44 16.4448L194.728 19.1563C193.313 17.9575 191.528 17.1806 189.568 17.0159V13.1828ZM188.04 13.1828V17.0159C186.079 17.1754 184.294 17.9575 182.879 19.1563L180.168 16.4448C182.287 14.5617 185.025 13.3577 188.04 13.1828ZM179.087 17.5253L181.799 20.2367C180.6 21.6516 179.823 23.437 179.658 25.3973H175.825C176 22.3823 177.204 19.6451 179.087 17.5253ZM175.825 26.9254H179.658C179.818 28.8857 180.6 30.671 181.799 32.0859L179.087 34.7974C177.204 32.6776 176 29.9404 175.825 26.9254ZM188.04 39.1398C185.025 38.9649 182.287 37.7609 180.168 35.8778L182.879 33.1664C184.294 34.3652 186.079 35.1421 188.04 35.3067V39.1398ZM180.908 26.1587C180.908 21.8008 184.443 18.2662 188.801 18.2662C193.159 18.2662 196.694 21.8008 196.694 26.1587C196.694 30.5166 193.159 34.0513 188.801 34.0513C184.443 34.0513 180.908 30.5166 180.908 26.1587ZM189.568 39.1398V35.3067C191.528 35.1472 193.313 34.3652 194.728 33.1664L197.44 35.8778C195.32 37.7609 192.583 38.9649 189.568 39.1398ZM198.52 34.7974L195.809 32.0859C197.007 30.671 197.784 28.8857 197.949 26.9254H201.782C201.607 29.9404 200.403 32.6776 198.52 34.7974ZM197.949 25.3973C197.79 23.437 197.007 21.6516 195.809 20.2367L198.52 17.5253C200.403 19.6451 201.607 22.3823 201.782 25.3973H197.949Z" fill="white"/>
<path d="M62.5843 50.3894C49.0784 50.3894 38.0884 39.3994 38.0884 25.8935C38.0884 12.3877 49.0784 1.39772 62.5843 1.39772C76.0902 1.39772 87.0801 12.3877 87.0801 25.8935C87.0801 39.3994 76.0902 50.3894 62.5843 50.3894ZM62.5843 3.16249C50.0508 3.16249 39.8532 13.3601 39.8532 25.8935C39.8532 38.427 50.0508 48.6246 62.5843 48.6246C75.1177 48.6246 85.3153 38.427 85.3153 25.8935C85.3153 13.3601 75.1177 3.16249 62.5843 3.16249Z" fill="#478BF9"/>
<path d="M122.468 50.3906C121.979 50.3906 121.588 49.9944 121.588 49.5108C121.588 49.0271 121.984 48.631 122.468 48.631C135.002 48.631 145.199 38.4334 145.199 25.8999C145.199 13.3664 135.002 3.16885 122.468 3.16885C121.979 3.16885 121.588 2.77266 121.588 2.28902C121.588 1.80539 121.984 1.40923 122.468 1.40923C135.974 1.40923 146.964 12.3992 146.964 25.9051C146.964 39.4109 135.974 50.4009 122.468 50.4009V50.3906Z" fill="#478BF9"/>
<path d="M86.8818 24.9211H76.1542V27.0358H86.8818V24.9211Z" fill="#478BF9"/>
<path d="M49.9456 24.9211H39.218V27.0358H49.9456V24.9211Z" fill="#478BF9"/>
<path d="M64.2756 39.2451H62.161V49.9727H64.2756V39.2451Z" fill="#478BF9"/>
<path d="M64.2756 1.98413H62.161V12.7117H64.2756V1.98413Z" fill="#478BF9"/>
<path d="M75.8303 12.5574C68.4934 5.22046 56.5927 5.22046 49.2507 12.5574C41.9138 19.8943 41.9138 31.7949 49.2507 39.137C56.5876 46.4739 68.4882 46.4739 75.8303 39.137C83.1672 31.8001 83.1672 19.8994 75.8303 12.5574ZM66.1729 14.1472C68.3133 14.8109 70.2324 16.0509 71.7245 17.7385L72.0126 18.0626L71.5907 18.1604C70.4742 18.4228 69.2806 18.6389 68.0457 18.7984L67.8245 18.8293L67.7628 18.6132C67.557 17.9083 67.3151 17.2291 67.0373 16.6014C66.6926 15.8142 66.3067 15.1248 65.8848 14.5434L65.4217 13.9105L66.1729 14.1421V14.1472ZM57.5857 25.2606L57.596 24.9931C57.6475 23.3672 57.8276 21.8134 58.1363 20.3831L58.1826 20.1567L58.4141 20.1773C61.1204 20.4139 64.012 20.4037 66.7029 20.1516L66.9344 20.131L66.9859 20.3574C67.2997 21.8031 67.4798 23.3621 67.5261 24.9931V25.2606H57.5909H57.5857ZM67.5261 26.4543V26.7219C67.4695 28.3529 67.2894 29.9118 66.9756 31.3576L66.9241 31.584L66.6926 31.5634C64.0017 31.3113 61.1102 31.3061 58.4038 31.5377L58.1723 31.5582L58.126 31.3318C57.8173 29.9015 57.6372 28.3529 57.5857 26.7219L57.5754 26.4543H67.5158H67.5261ZM62.5559 13.6996C64.0532 13.6996 65.5761 15.5981 66.5279 18.6595L66.6257 18.9682L66.3015 18.9939C65.0359 19.1019 63.729 19.1585 62.417 19.1585C61.1976 19.1585 59.9834 19.1122 58.8 19.0145L58.4758 18.9888L58.5736 18.6749C59.5254 15.6033 61.0536 13.6945 62.5559 13.6945V13.6996ZM53.3359 17.7951C54.8383 16.0818 56.7728 14.8212 58.9389 14.1524L59.6953 13.9208L59.227 14.5588C58.8051 15.1351 58.4141 15.8297 58.0745 16.6117C57.8018 17.2291 57.5549 17.9186 57.3388 18.6595L57.2771 18.8704L57.0558 18.8447C55.8107 18.6904 54.6067 18.4845 53.4748 18.2221L53.0478 18.1244L53.3359 17.7951ZM50.3312 24.9828C50.4752 22.9762 51.1184 21.0211 52.1937 19.318L52.2966 19.1585L52.4818 19.2048C53.799 19.5393 55.219 19.8068 56.7111 19.9972L56.9889 20.0332L56.9323 20.311C56.6236 21.8031 56.4487 23.3827 56.4024 25.0085V25.2606H50.3157L50.3363 24.9828H50.3312ZM52.2966 32.5564L52.1937 32.3969C51.1184 30.699 50.4752 28.7387 50.3312 26.7321L50.3106 26.4543H56.3921V26.7064C56.4435 28.3323 56.6236 29.917 56.9272 31.4039L56.9838 31.6817L56.7059 31.7177C55.219 31.9081 53.7938 32.1757 52.4767 32.5101L52.2914 32.5564H52.2966ZM58.9389 37.5677C56.7728 36.8988 54.8383 35.6383 53.3359 33.925L53.0478 33.5957L53.4748 33.4979C54.6067 33.2407 55.8107 33.0297 57.0558 32.8754L57.2771 32.8497L57.3388 33.0606C57.5549 33.8015 57.8018 34.491 58.0745 35.1084C58.4193 35.8956 58.8051 36.585 59.227 37.1664L59.6953 37.8044L58.9389 37.5729V37.5677ZM62.5559 38.0153C61.0536 38.0153 59.5254 36.1065 58.5736 33.0349L58.4758 32.721L58.8 32.6953C61.2542 32.4998 63.8679 32.5049 66.3015 32.7159L66.6257 32.7416L66.5279 33.0503C65.5709 36.1065 64.048 38.0102 62.5559 38.0102V38.0153ZM71.7245 33.9764C70.2324 35.664 68.3081 36.904 66.1729 37.5677L65.4217 37.7992L65.8848 37.1664C66.3067 36.5902 66.6926 35.8956 67.0373 35.1084C67.31 34.4755 67.557 33.8015 67.7628 33.0966L67.8245 32.8805L68.0457 32.9114C69.2806 33.0709 70.4742 33.287 71.5907 33.5494L72.0126 33.6523L71.7245 33.9764ZM74.7755 26.7321C74.6315 28.7593 73.9781 30.7402 72.877 32.4586L72.7741 32.6181L72.5889 32.5718C71.2872 32.2271 69.8722 31.9544 68.3905 31.7537L68.1126 31.7177L68.1692 31.4451C68.4779 29.953 68.658 28.3631 68.7043 26.7116V26.4594H74.791L74.7704 26.7373L74.7755 26.7321ZM68.7146 25.2606V25.0085C68.6632 23.3569 68.4831 21.762 68.1744 20.275L68.1178 20.0024L68.3956 19.9663C69.8774 19.7657 71.2871 19.493 72.594 19.1482L72.7792 19.102L72.8821 19.2615C73.9832 20.9799 74.6417 22.9556 74.7807 24.988L74.8013 25.2658H68.7198L68.7146 25.2606Z" fill="#478BF9"/>
<path d="M122.839 50.4202L63.7214 50.4202C63.2327 50.4202 62.8416 50.024 62.8416 49.5403C62.8416 49.0567 63.2378 48.6605 63.7214 48.6605L122.839 48.6605C123.327 48.6605 123.718 49.0567 123.718 49.5403C123.718 50.024 123.322 50.4202 122.839 50.4202Z" fill="#478BF9"/>
<path d="M122.972 3.18872L63.8553 3.18872C63.3665 3.18872 62.9755 2.79257 62.9755 2.30893C62.9755 1.82529 63.3716 1.4291 63.8553 1.4291L122.972 1.4291C123.461 1.4291 123.852 1.82529 123.852 2.30893C123.852 2.79257 123.456 3.18872 122.972 3.18872Z" fill="#478BF9"/>
</g>
</svg>
